# xmcd
#
# Track frame offsets:
#	150
#	10166
#	23947
#	38077
#	49807
#	63047
#	76112
#	89815
#	104890
#	123152
#	134909
#	148258
#	159367
#	170638
#	189035
#	201574
#	214356
#	228137
#	240797
#	252025
#
# Disc length: 3565 seconds
#
# Revision: 0
# Processed by: cddbd v1.5.1PL0 Copyright (c) Steve Scherf et al.
# Submitted via: dBpowerAMP V4.0
#
DISCID=150deb14
DTITLE=Teodoro and Sampaio - As vintes mais
DYEAR=2002
DGENRE=Sertanejo
TTITLE0=Quem tem... tem medo
TTITLE1=Pinga ne mim
TTITLE2=A gostosona
TTITLE3=Cantaram minha vizinha
TTITLE4=O machão chorou
TTITLE5=Se a casa cair
TTITLE6=Machucado de paixão
TTITLE7=Bão Tamém
TTITLE8=Paixão proibida
TTITLE9=Estrela Caída
TTITLE10=Vestido de sêda
TTITLE11=Cheira Chumbo
TTITLE12=Passe Livre
TTITLE13=Delícias de Amor
TTITLE14=Velho Galã
TTITLE15=Cunhada
TTITLE16=Casaco verde
TTITLE17=Amando Escondido
TTITLE18=Garanhão da madrugada
TTITLE19=Cheirinho de mulher
EXTD=Teodoro and Sampaio - As vintes mais
EXTT0=
EXTT1=
EXTT2=
EXTT3=
EXTT4=
EXTT5=
EXTT6=
EXTT7=
EXTT8=
EXTT9=
EXTT10=
EXTT11=
EXTT12=
EXTT13=
EXTT14=
EXTT15=
EXTT16=
EXTT17=
EXTT18=
EXTT19=
PLAYORDER=
